<?xml version="1.0" encoding="utf-8"?>
<!-- Generator: Adobe Illustrator 22.1.0, SVG Export Plug-In . SVG Version: 6.00 Build 0)  -->
<svg version="1.1" id="Слой_1" xmlns="http://www.w3.org/2000/svg" xmlns:xlink="http://www.w3.org/1999/xlink" x="0px" y="0px"
	 viewBox="0 0 42.7 42.6" style="enable-background:new 0 0 42.7 42.6;" xml:space="preserve">
<style type="text/css">
	.st0{fill:#FFFFFE;}
	.st1{fill:#E30611;}
</style>
<path class="st0" d="M35.4,25.1c0-10.8-7.5-23.1-14-23.1c-6.6,0-14,12.3-14,23.1c0,7.7,4.3,15.4,14,15.4S35.4,32.8,35.4,25.1"/>
<path class="st1" d="M42.6,38.3c0,2.3-1.9,4.3-4.3,4.3h-34C2,42.6,0,40.7,0,38.3v-34C0.1,1.9,2,0,4.4,0h34c2.3,0,4.3,1.9,4.3,4.2
	L42.6,38.3 M21.4,37c8,0,11.5-6.3,11.5-12.6c0-8.8-6.1-18.9-11.5-18.9S9.9,15.6,9.9,24.4C9.9,30.7,13.4,37,21.4,37"/>
</svg>
