<svg xmlns="http://www.w3.org/2000/svg">
  <symbol id="location">
    <path fill="currentColor" d="M10 5L10 5.00001C10 5.28878 9.97552 5.57184 9.92852 5.84721C9.31782 9.54574 5 13 5 13C5 13 0.68203 9.54563 0.0714481 5.84702C0.02447 5.57171 0 5.28871 0 5.00001V5C0 2.23858 2.23858 0 5 0C7.76142 0 10 2.23858 10 5ZM5 7C6.10457 7 7 6.10457 7 5C7 3.89543 6.10457 3 5 3C3.89543 3 3 3.89543 3 5C3 6.10457 3.89543 7 5 7Z"></path>
  </symbol>
  <symbol id="viber">
    <path d="M12.4198 9.15828C12.427 9.02581 12.5402 8.92423 12.6727 8.93139C13.1741 8.95849 13.5885 9.11009 13.883 9.41605C14.1761 9.7206 14.3188 10.1453 14.3456 10.6545C14.3526 10.787 14.2509 10.9001 14.1184 10.9071C13.9859 10.914 13.8728 10.8123 13.8659 10.6798C13.8428 10.2416 13.7237 9.9433 13.5369 9.74921C13.3514 9.55652 13.0677 9.43387 12.6467 9.41111C12.5142 9.40395 12.4127 9.29075 12.4198 9.15828Z" fill="currentColor"></path>
    <path d="M12.3544 7.63537C12.2222 7.62493 12.1065 7.72368 12.096 7.85593C12.0856 7.98819 12.1843 8.10386 12.3166 8.1143C13.217 8.18539 13.9031 8.48995 14.4021 9.03425C14.8805 9.55821 15.1355 10.2442 15.1122 11.0593C15.1084 11.1919 15.2128 11.3025 15.3454 11.3063C15.478 11.31 15.5886 11.2056 15.5924 11.073C15.619 10.1429 15.3255 9.33306 14.7568 8.71015C14.1588 8.05783 13.3488 7.71387 12.3544 7.63537Z" fill="currentColor"></path>
    <path d="M11.6216 6.65321C11.6216 6.52055 11.7292 6.413 11.8618 6.413C13.2672 6.413 14.4503 6.8838 15.3951 7.80238C16.3468 8.72766 16.8391 9.99059 16.8391 11.5648C16.8391 11.6975 16.7316 11.805 16.5989 11.805C16.4663 11.805 16.3587 11.6975 16.3587 11.5648C16.3587 10.0974 15.9036 8.96681 15.0602 8.14684C14.2099 7.32018 13.1491 6.89342 11.8618 6.89342C11.7292 6.89342 11.6216 6.78588 11.6216 6.65321Z" fill="currentColor"></path>
    <path d="M13.233 13.6838C13.0585 13.9082 12.7095 13.8833 12.7095 13.8833C10.2413 13.235 9.61798 10.7669 9.61798 10.7669C9.61798 10.7669 9.59306 10.4178 9.81744 10.2433L10.2662 9.89427C10.4656 9.71975 10.6152 9.29592 10.3908 8.89702C10.3352 8.81349 10.2656 8.70577 10.1913 8.59058C10.066 8.39637 9.92698 8.18093 9.81744 8.02443C9.61799 7.75019 9.16922 7.2017 9.16922 7.2017C8.94484 6.92746 8.62074 6.87759 8.2717 7.05211C7.9476 7.25156 7.64842 7.50087 7.37418 7.80005C7.1498 8.04936 7.02514 8.29867 7.00021 8.54798V8.64771C7.00021 8.77235 7.02514 8.87207 7.05007 8.97178C7.14979 9.37068 7.42404 9.99399 7.99746 11.0411C8.37142 11.7142 8.77032 12.2877 9.14429 12.7614C9.34374 13.0107 9.56813 13.26 9.84237 13.5342L9.94209 13.6339C10.1914 13.9082 10.4656 14.1326 10.715 14.332C11.1887 14.706 11.7621 15.1049 12.4352 15.4788C13.5072 16.0523 14.1305 16.3265 14.5045 16.4262C14.6042 16.4512 14.7289 16.4761 14.8286 16.4761H14.9283C15.1776 16.4262 15.4269 16.3265 15.6763 16.1021C16.0004 15.8279 16.2497 15.5287 16.4242 15.2046C16.5987 14.8556 16.5488 14.5315 16.2746 14.3071C16.2746 14.3071 15.7261 13.8583 15.4519 13.6589C15.2026 13.4594 14.8037 13.2101 14.5793 13.0855C14.1555 12.8611 13.7566 13.0107 13.582 13.235L13.233 13.6838Z" fill="currentColor"></path>
    <path d="M18.9922 4.85816C18.5185 4.43433 16.6237 3.03819 12.3605 3.01326C12.3605 3.01326 7.34931 2.71408 4.90606 4.95789C3.53484 6.3291 3.06115 8.29867 3.01129 10.7669C2.96142 13.235 2.88664 17.8473 7.34931 19.1188V21.0385C7.34931 21.0385 7.32438 21.8114 7.823 21.9609C8.32958 22.123 8.655 21.7581 9.08035 21.2812C9.17834 21.1713 9.28163 21.0555 9.39366 20.9388C9.71777 20.5897 10.1665 20.0911 10.4906 19.6922C13.5322 19.9415 15.8758 19.3681 16.15 19.2684C16.2047 19.2509 16.2814 19.2314 16.376 19.2074C17.3596 18.958 20.2891 18.2151 20.8121 14.0079C21.4105 9.22112 20.5628 6.20445 18.9922 4.85816ZM19.5157 13.6339C19.0839 17.1564 16.7049 17.6752 15.8908 17.8527C15.8118 17.8699 15.7476 17.8839 15.7013 17.8972C15.4769 17.9719 13.4325 18.4706 10.8397 18.321C10.8397 18.321 8.91997 20.6396 8.29669 21.2629C8.19697 21.3626 8.09724 21.3875 8.02245 21.3875C7.92273 21.3626 7.89779 21.2379 7.89779 21.0634C7.89779 20.8141 7.92273 17.8722 7.92273 17.8722C4.29992 16.7844 4.36322 13.293 4.40176 11.1672C4.40396 11.0457 4.40608 10.9286 4.40743 10.8167C4.4573 8.74742 4.83127 7.07703 5.9781 5.9302C8.04739 4.06036 12.3106 4.33461 12.3106 4.33461C15.9007 4.35954 17.6209 5.43158 18.0198 5.80554C19.3163 6.95238 19.9894 9.66988 19.5157 13.6339Z" fill="currentColor" >

    </path>
  </symbol>
  <symbol id="working-time">
   <path fill-rule="evenodd" clip-rule="evenodd" d="M19 12.5C19 16.0899 16.0899 19 12.5 19C8.91015 19 6 16.0899 6 12.5C6 8.91015 8.91015 6 12.5 6C16.0899 6 19 8.91015 19 12.5ZM20 12.5C20 16.6421 16.6421 20 12.5 20C8.35786 20 5 16.6421 5 12.5C5 8.35786 8.35786 5 12.5 5C16.6421 5 20 8.35786 20 12.5ZM13 9H12C12 10.6667 12 12.3333 12 14H15V13H13V9Z" fill="currentColor"></path>
  </symbol>
  <symbol id="phone">
  <path fill-rule="evenodd" clip-rule="evenodd" d="M12 7.66685C15.3086 7.66685 15.9997 8.96182 15.9997 9.66644H20C20 7.00663 16.5603 5 12 5C7.43917 5 4 7.00663 4 9.66644H8.00027C8.00027 8.96182 8.69135 7.66685 12 7.66685ZM8.00027 10.0006H4V12.0631H8.00027V10.0006ZM15.9998 10.0006H20V12.0631H15.9998V10.0006ZM12 16.9997C12.9204 16.9997 13.6665 16.2536 13.6665 15.3332C13.6665 14.4128 12.9204 13.6667 12 13.6667C11.0796 13.6667 10.3335 14.4128 10.3335 15.3332C10.3335 16.2536 11.0796 16.9997 12 16.9997ZM12.5422 8.34874C13.1385 8.37907 13.62 8.45869 14.0002 8.56809V11.6671L18.6666 14.3345V19.0004H5.33398V14.3345L10.0004 11.6671V8.56809C10.3812 8.45869 10.8621 8.37961 11.459 8.34874V11.1255H12.5422V8.34874ZM12 18.0001C13.4732 18.0001 14.6669 16.8064 14.6669 15.3327C14.6669 13.8617 13.4732 12.6658 12 12.6658C10.5269 12.6658 9.33317 13.8601 9.33317 15.3327C9.33317 16.8064 10.5269 18.0001 12 18.0001Z" fill="currentColor"></path>
  </symbol>
  <symbol id="telegram">
  <path d="M12 21C17.2467 21 21.5 16.7467 21.5 11.5C21.5 6.25329 17.2467 2 12 2C6.75329 2 2.5 6.25329 2.5 11.5C2.5 16.7467 6.75329 21 12 21Z" fill="currentColor"></path><path opacity="0.5" d="M10 16L12.5 14L10 13" class="styles_iconTelegram__2OsXK"></path><path d="M10 13L14.2258 15.4509C14.6544 15.6873 14.9637 15.5649 15.0705 15.053L16.5993 7.84887C16.7558 7.22136 16.36 6.93674 15.95 7.12288L6.97318 10.5843C6.36042 10.8301 6.36399 11.172 6.86148 11.3243L9.16515 12.0433L14.4984 8.67862C14.7502 8.52594 14.9812 8.60802 14.7916 8.77634" class="styles_iconTelegram__2OsXK"></path>
  </symbol>
  <symbol id="email">
  <path fill="currentColor" xmlns="http://www.w3.org/2000/svg" fill-rule="evenodd" clip-rule="evenodd" d="M4 7V17C4 17.5523 4.44772 18 5 18H19C19.5523 18 20 17.5523 20 17V7C20 6.44772 19.5523 6 19 6H5C4.44772 6 4 6.44772 4 7ZM5.5 16.5H18.5V8.36048L12.4685 13.5461C12.1946 13.7653 11.8054 13.7653 11.5315 13.5461L5.5 8.36046V16.5ZM6.8256 7.5H17.1744L12 12L6.8256 7.5Z"></path>
  </symbol>
  <symbol id="call">
  <path d="M17.562 6.41469C18.8385 7.69116 19.6692 9.2952 19.9698 11.0579C20.0137 11.3045 19.8448 11.5408 19.5983 11.578C19.5956 11.5783 19.5929 11.5787 19.5902 11.579C19.5665 11.582 19.5449 11.5847 19.5207 11.5847C19.3012 11.5847 19.1087 11.4294 19.0715 11.2065C18.8048 9.63289 18.0618 8.1977 16.9204 7.0563C15.779 5.91828 14.3439 5.17199 12.7702 4.90521C12.5203 4.86131 12.3548 4.6283 12.3954 4.37841C12.4393 4.1319 12.6723 3.96305 12.9188 4.00695C14.6815 4.3075 16.2856 5.13822 17.562 6.41469Z" fill="currentColor"></path><path fill-rule="evenodd" clip-rule="evenodd" d="M16.6334 13.9114C16.3059 13.5704 15.9108 13.388 15.492 13.388C15.0767 13.388 14.6782 13.567 14.3371 13.908L13.27 14.9718C13.212 14.9405 13.154 14.9108 13.0969 14.8815C13.0677 14.8665 13.0386 14.8516 13.01 14.8367C12.8884 14.7759 12.7736 14.7185 12.6757 14.6577C11.6761 14.0229 10.7677 13.1955 9.89648 12.125C9.47436 11.5915 9.1907 11.1424 8.98471 10.6865C9.2349 10.4576 9.46855 10.2205 9.69562 9.99012L9.76816 9.91653C9.81543 9.86926 9.86271 9.82114 9.90999 9.77302C9.95726 9.7249 10.0045 9.67677 10.0518 9.6295C10.761 8.92035 10.761 8.00183 10.0518 7.29267L9.12992 6.37078C9.02524 6.26609 8.91717 6.15803 8.81587 6.04997C8.61325 5.8406 8.40051 5.62448 8.18101 5.42186C7.85345 5.09768 7.46172 4.92546 7.04974 4.92546C6.63776 4.92546 6.23928 5.09768 5.90159 5.42186L5.89484 5.42862L4.74669 6.5869C4.31444 7.01914 4.06793 7.54594 4.0139 8.15716C3.93285 9.14322 4.22326 10.0617 4.44614 10.6628C4.9932 12.1385 5.81041 13.5062 7.02948 14.9718C8.50857 16.7379 10.2882 18.1326 12.3211 19.1152C13.0978 19.4833 14.1345 19.919 15.2928 19.9932C15.3637 19.9966 15.438 20 15.5055 20C16.2856 20 16.9407 19.7197 17.454 19.1625C17.4557 19.1591 17.4582 19.1566 17.4608 19.1541C17.4633 19.1516 17.4658 19.149 17.4675 19.1456C17.6301 18.9487 17.8159 18.769 18.0114 18.58L18.0585 18.5344C18.2037 18.396 18.3523 18.2508 18.4975 18.0988C18.8318 17.751 19.0074 17.3457 19.0074 16.9304C19.0074 16.5116 18.8284 16.1098 18.4873 15.7721L16.6334 13.9114ZM17.8424 17.4673C17.7342 17.5838 17.6238 17.6911 17.5074 17.8043L17.4304 17.8793C17.2109 18.0887 16.988 18.3082 16.7786 18.5547C16.4376 18.9194 16.0357 19.0916 15.5089 19.0916C15.4583 19.0916 15.4042 19.0916 15.3536 19.0882C14.3506 19.0241 13.4186 18.6323 12.7196 18.298C10.8082 17.3728 9.12992 16.0591 7.73525 14.3943C6.58373 13.0064 5.81379 11.7232 5.30388 10.3454C4.98982 9.50455 4.87501 8.84943 4.92566 8.23146C4.95943 7.83636 5.11139 7.5088 5.39168 7.22851L6.5432 6.07698C6.70867 5.92165 6.88427 5.83722 7.05649 5.83722C7.26924 5.83722 7.44146 5.96555 7.54952 6.07361L7.55965 6.08374C7.76565 6.27622 7.96151 6.47546 8.1675 6.68821C8.22025 6.74265 8.27385 6.7971 8.32788 6.85198C8.38108 6.90602 8.43469 6.96048 8.48831 7.01577L9.4102 7.93766C9.76816 8.29562 9.76816 8.62655 9.4102 8.98451C9.37744 9.01727 9.34505 9.05004 9.31279 9.08268C9.24863 9.14758 9.18494 9.21202 9.11979 9.27492C8.83613 9.56534 8.56598 9.83549 8.27218 10.0989C8.26979 10.1013 8.2674 10.1033 8.26516 10.1051C8.26107 10.1085 8.25748 10.1114 8.2553 10.1158C7.96488 10.4062 8.01891 10.6898 8.0797 10.8823L8.08983 10.9127C8.32959 11.4936 8.66728 12.0406 9.18057 12.6924L9.18395 12.6957C10.116 13.8439 11.0987 14.7388 12.1826 15.4243C12.3211 15.5121 12.4629 15.583 12.598 15.6505C12.7196 15.7113 12.8344 15.7687 12.9323 15.8295C12.9391 15.8329 12.9458 15.8371 12.9526 15.8413C12.9593 15.8455 12.9661 15.8498 12.9728 15.8532C13.0877 15.9106 13.1957 15.9376 13.3072 15.9376C13.5874 15.9376 13.763 15.762 13.8205 15.7046L14.9754 14.5497C15.0902 14.4348 15.2725 14.2964 15.4853 14.2964C15.6946 14.2964 15.8669 14.4281 15.9715 14.5429L17.839 16.4103C18.1868 16.7548 18.1868 17.1094 17.8424 17.4673Z" fill="currentColor"></path><path d="M12.6351 7.80598C13.5199 7.95456 14.3236 8.3733 14.9652 9.01491C15.6068 9.65653 16.0222 10.4602 16.1742 11.345C16.2113 11.5679 16.4038 11.7232 16.6233 11.7232C16.6476 11.7232 16.6691 11.7205 16.6929 11.7175L16.701 11.7164C16.9509 11.6759 17.1163 11.4395 17.0758 11.1896C16.8934 10.1192 16.3869 9.14324 15.6136 8.36992C14.8403 7.59661 13.8643 7.09007 12.7939 6.90772C12.544 6.8672 12.311 7.03266 12.2671 7.27918C12.2232 7.52569 12.3853 7.76545 12.6351 7.80598Z" fill="currentColor"></path><path d="M17.562 6.41469C18.8385 7.69116 19.6692 9.2952 19.9698 11.0579C20.0137 11.3045 19.8448 11.5408 19.5983 11.578C19.5956 11.5783 19.5929 11.5787 19.5902 11.579C19.5665 11.582 19.5449 11.5847 19.5207 11.5847C19.3012 11.5847 19.1087 11.4294 19.0715 11.2065C18.8048 9.63289 18.0618 8.1977 16.9204 7.0563C15.779 5.91828 14.3439 5.17199 12.7702 4.90521C12.5203 4.86131 12.3548 4.6283 12.3954 4.37841C12.4393 4.1319 12.6723 3.96305 12.9188 4.00695C14.6815 4.3075 16.2856 5.13822 17.562 6.41469Z" stroke="currentColor" stroke-width="0.6"></path><path fill-rule="evenodd" clip-rule="evenodd" d="M16.6334 13.9114C16.3059 13.5704 15.9108 13.388 15.492 13.388C15.0767 13.388 14.6782 13.567 14.3371 13.908L13.27 14.9718C13.212 14.9405 13.154 14.9108 13.0969 14.8815C13.0677 14.8665 13.0386 14.8516 13.01 14.8367C12.8884 14.7759 12.7736 14.7185 12.6757 14.6577C11.6761 14.0229 10.7677 13.1955 9.89648 12.125C9.47436 11.5915 9.1907 11.1424 8.98471 10.6865C9.2349 10.4576 9.46855 10.2205 9.69562 9.99012L9.76816 9.91653C9.81543 9.86926 9.86271 9.82114 9.90999 9.77302C9.95726 9.7249 10.0045 9.67677 10.0518 9.6295C10.761 8.92035 10.761 8.00183 10.0518 7.29267L9.12992 6.37078C9.02524 6.26609 8.91717 6.15803 8.81587 6.04997C8.61325 5.8406 8.40051 5.62448 8.18101 5.42186C7.85345 5.09768 7.46172 4.92546 7.04974 4.92546C6.63776 4.92546 6.23928 5.09768 5.90159 5.42186L5.89484 5.42862L4.74669 6.5869C4.31444 7.01914 4.06793 7.54594 4.0139 8.15716C3.93285 9.14322 4.22326 10.0617 4.44614 10.6628C4.9932 12.1385 5.81041 13.5062 7.02948 14.9718C8.50857 16.7379 10.2882 18.1326 12.3211 19.1152C13.0978 19.4833 14.1345 19.919 15.2928 19.9932C15.3637 19.9966 15.438 20 15.5055 20C16.2856 20 16.9407 19.7197 17.454 19.1625C17.4557 19.1591 17.4582 19.1566 17.4608 19.1541C17.4633 19.1516 17.4658 19.149 17.4675 19.1456C17.6301 18.9487 17.8159 18.769 18.0114 18.58L18.0585 18.5344C18.2037 18.396 18.3523 18.2508 18.4975 18.0988C18.8318 17.751 19.0074 17.3457 19.0074 16.9304C19.0074 16.5116 18.8284 16.1098 18.4873 15.7721L16.6334 13.9114ZM17.8424 17.4673C17.7342 17.5838 17.6238 17.6911 17.5074 17.8043L17.4304 17.8793C17.2109 18.0887 16.988 18.3082 16.7786 18.5547C16.4376 18.9194 16.0357 19.0916 15.5089 19.0916C15.4583 19.0916 15.4042 19.0916 15.3536 19.0882C14.3506 19.0241 13.4186 18.6323 12.7196 18.298C10.8082 17.3728 9.12992 16.0591 7.73525 14.3943C6.58373 13.0064 5.81379 11.7232 5.30388 10.3454C4.98982 9.50455 4.87501 8.84943 4.92566 8.23146C4.95943 7.83636 5.11139 7.5088 5.39168 7.22851L6.5432 6.07698C6.70867 5.92165 6.88427 5.83722 7.05649 5.83722C7.26924 5.83722 7.44146 5.96555 7.54952 6.07361L7.55965 6.08374C7.76565 6.27622 7.96151 6.47546 8.1675 6.68821C8.22025 6.74265 8.27385 6.7971 8.32788 6.85198C8.38108 6.90602 8.43469 6.96048 8.48831 7.01577L9.4102 7.93766C9.76816 8.29562 9.76816 8.62655 9.4102 8.98451C9.37744 9.01727 9.34505 9.05004 9.31279 9.08268C9.24863 9.14758 9.18494 9.21202 9.11979 9.27492C8.83613 9.56534 8.56598 9.83549 8.27218 10.0989C8.26979 10.1013 8.2674 10.1033 8.26516 10.1051C8.26107 10.1085 8.25748 10.1114 8.2553 10.1158C7.96488 10.4062 8.01891 10.6898 8.0797 10.8823L8.08983 10.9127C8.32959 11.4936 8.66728 12.0406 9.18057 12.6924L9.18395 12.6957C10.116 13.8439 11.0987 14.7388 12.1826 15.4243C12.3211 15.5121 12.4629 15.583 12.598 15.6505C12.7196 15.7113 12.8344 15.7687 12.9323 15.8295C12.9391 15.8329 12.9458 15.8371 12.9526 15.8413C12.9593 15.8455 12.9661 15.8498 12.9728 15.8532C13.0877 15.9106 13.1957 15.9376 13.3072 15.9376C13.5874 15.9376 13.763 15.762 13.8205 15.7046L14.9754 14.5497C15.0902 14.4348 15.2725 14.2964 15.4853 14.2964C15.6946 14.2964 15.8669 14.4281 15.9715 14.5429L17.839 16.4103C18.1868 16.7548 18.1868 17.1094 17.8424 17.4673Z" stroke="currentColor" stroke-width="0.6"></path><path d="M12.6351 7.80598C13.5199 7.95456 14.3236 8.3733 14.9652 9.01491C15.6068 9.65653 16.0222 10.4602 16.1742 11.345C16.2113 11.5679 16.4038 11.7232 16.6233 11.7232C16.6476 11.7232 16.6691 11.7205 16.6929 11.7175L16.701 11.7164C16.9509 11.6759 17.1163 11.4395 17.0758 11.1896C16.8934 10.1192 16.3869 9.14324 15.6136 8.36992C14.8403 7.59661 13.8643 7.09007 12.7939 6.90772C12.544 6.8672 12.311 7.03266 12.2671 7.27918C12.2232 7.52569 12.3853 7.76545 12.6351 7.80598Z" stroke="currentColor" stroke-width="0.6"></path>
  </symbol>
  <symbol id="write">
  <path d="M8.25 10C8.25 9.58579 8.58579 9.25 9 9.25H15C15.4142 9.25 15.75 9.58579 15.75 10C15.75 10.4142 15.4142 10.75 15 10.75H9C8.58579 10.75 8.25 10.4142 8.25 10Z" fill="currentColor"></path><path d="M9 12.25C8.58579 12.25 8.25 12.5858 8.25 13C8.25 13.4142 8.58579 13.75 9 13.75H12C12.4142 13.75 12.75 13.4142 12.75 13C12.75 12.5858 12.4142 12.25 12 12.25H9Z" fill="currentColor"></path><path fill-rule="evenodd" clip-rule="evenodd" d="M6.25 16.9213C6.20067 16.8881 6.14788 16.8514 6.09213 16.8111C5.77226 16.5801 5.35099 16.2286 4.93056 15.7381C4.08286 14.7491 3.25 13.206 3.25 11C3.25 9.47314 4.14534 7.78123 5.63479 6.49488C7.14532 5.19033 9.3191 4.25 12 4.25C14.6809 4.25 16.8547 5.19033 18.3652 6.49488C19.8497 7.77697 20.7441 9.46194 20.75 10.9848C20.8033 12.4288 20.2336 14.3582 18.851 15.9324C17.4407 17.5382 15.2074 18.75 12 18.75H10.1771L7.33541 20.1708C7.10292 20.2871 6.82681 20.2746 6.6057 20.138C6.38459 20.0013 6.25 19.7599 6.25 19.5V16.9213ZM6.61521 7.63012C5.35466 8.71877 4.75 10.0269 4.75 11C4.75 12.794 5.41714 14.0009 6.06944 14.7619C6.39901 15.1464 6.72774 15.4199 6.97037 15.5951C7.09136 15.6825 7.18984 15.7447 7.25471 15.7833C7.2871 15.8025 7.31098 15.8159 7.32493 15.8235L7.3382 15.8306L7.33667 15.8298C7.59038 15.957 7.75 16.2162 7.75 16.5V18.2865L9.66459 17.3292C9.76873 17.2771 9.88357 17.25 10 17.25H12C14.7926 17.25 16.6093 16.2118 17.724 14.9426C18.8616 13.6472 19.2928 12.0844 19.2506 11.03C19.2502 11.02 19.25 11.01 19.25 11C19.25 10.0269 18.6453 8.71877 17.3848 7.63012C16.1453 6.55967 14.3191 5.75 12 5.75C9.6809 5.75 7.85468 6.55967 6.61521 7.63012Z" fill="currentColor"></path>
  </symbol>
  <symbol id="search">
  <path fill="currentColor" fill-rule="evenodd" clip-rule="evenodd" d="M11.4406 10.3108C13.392 7.80345 13.2153 4.17663 10.9107 1.87197C8.4147 -0.623991 4.36794 -0.623991 1.87197 1.87197C-0.623991 4.36794 -0.623991 8.4147 1.87197 10.9107C4.17662 13.2153 7.80344 13.392 10.3108 11.4406L12.3058 13.5368C12.6152 13.8619 13.1317 13.8683 13.449 13.551C13.7555 13.2445 13.7616 12.7495 13.4628 12.4356L11.4406 10.3108ZM9.7857 9.77595C11.6528 7.90359 11.6512 4.87216 9.78083 3.00181C7.90886 1.12984 4.87379 1.12984 3.00181 3.00181C1.12984 4.87379 1.12984 7.90886 3.00181 9.78083C4.87216 11.6512 7.90359 11.6528 9.77595 9.7857C9.77758 9.78408 9.77921 9.78246 9.78083 9.78083C9.78245 9.77921 9.78408 9.77758 9.7857 9.77595Z"></path>
  </symbol>
  <symbol id="account">
  <path fill="currentColor" d="M16.2 3.25C17.1665 3.25 17.95 4.0335 17.95 5V17C17.95 17.9665 17.1665 18.75 16.2 18.75H8.8C7.8335 18.75 7.05 17.9665 7.05 17V15H8.55V17C8.55 17.1381 8.66193 17.25 8.8 17.25H16.2C16.3381 17.25 16.45 17.1381 16.45 17V5C16.45 4.86193 16.3381 4.75 16.2 4.75H8.8C8.66193 4.75 8.55 4.86193 8.55 5V6.99998H7.05V5C7.05 4.0335 7.8335 3.25 8.8 3.25H16.2Z"></path><path fill="currentColor" d="M9.96967 9.03031C9.67678 8.73742 9.67677 8.26255 9.96967 7.96966C10.2626 7.67676 10.7374 7.67676 11.0303 7.96965L13.5303 10.4696C13.671 10.6103 13.75 10.801 13.75 10.9999C13.75 11.1989 13.671 11.3896 13.5303 11.5303L11.0303 14.0303C10.7374 14.3232 10.2626 14.3232 9.96967 14.0303C9.67678 13.7374 9.67677 13.2625 9.96967 12.9697L11.1894 11.7499H5C4.58579 11.7499 4.25 11.4142 4.25 10.9999C4.25 10.5857 4.58579 10.2499 5 10.2499H11.1893L9.96967 9.03031Z"></path>
  </symbol>
  <symbol id="cart"><path fill="currentColor" fill-rule="evenodd" clip-rule="evenodd" d="M12.0539 9.47368C12.6658 9.47368 13.2042 9.13921 13.4816 8.63342L16.1492 3.33895C16.4511 2.80053 16.0595 2.13158 15.4395 2.13158H4.43447L3.66763 0.5H1.31579C0.865241 0.5 0.5 0.865241 0.5 1.31579C0.5 1.76634 0.865242 2.13158 1.31579 2.13158H2.63158L5.56842 8.32342L4.36842 10.0921C3.77289 11.1853 4.35211 12.1316 5.59211 12.1316H13.75C14.2006 12.1316 14.5658 11.7663 14.5658 11.3158C14.5658 10.8652 14.2005 10.5 13.75 10.5H6L6.79211 9.47368H12.0539ZM5.20947 3.76316H14.0526L12.0539 7.84211H7.14289L5.20947 3.76316ZM8.75 14.5724C8.75 15.3608 8.11083 16 7.32237 16C6.53391 16 5.89474 15.3608 5.89474 14.5724C5.89474 13.7839 6.53391 13.1447 7.32237 13.1447C8.11083 13.1447 8.75 13.7839 8.75 14.5724ZM12.2171 16C13.0056 16 13.6447 15.3608 13.6447 14.5724C13.6447 13.7839 13.0056 13.1447 12.2171 13.1447C11.4287 13.1447 10.7895 13.7839 10.7895 14.5724C10.7895 15.3608 11.4287 16 12.2171 16Z"></path></symbol>
  <symbol id="hearth"><path fill="currentColor" d="m256 455.515625c-7.289062 0-14.316406-2.640625-19.792969-7.4375-20.683593-18.085937-40.625-35.082031-58.21875-50.074219l-.089843-.078125c-51.582032-43.957031-96.125-81.917969-127.117188-119.3125-34.644531-41.804687-50.78125-81.441406-50.78125-124.742187 0-42.070313 14.425781-80.882813 40.617188-109.292969 26.503906-28.746094 62.871093-44.578125 102.414062-44.578125 29.554688 0 56.621094 9.34375 80.445312 27.769531 12.023438 9.300781 22.921876 20.683594 32.523438 33.960938 9.605469-13.277344 20.5-24.660157 32.527344-33.960938 23.824218-18.425781 50.890625-27.769531 80.445312-27.769531 39.539063 0 75.910156 15.832031 102.414063 44.578125 26.191406 28.410156 40.613281 67.222656 40.613281 109.292969 0 43.300781-16.132812 82.9375-50.777344 124.738281-30.992187 37.398437-75.53125 75.355469-127.105468 119.308594-17.625 15.015625-37.597657 32.039062-58.328126 50.167969-5.472656 4.789062-12.503906 7.429687-19.789062 7.429687zm-112.96875-425.523437c-31.066406 0-59.605469 12.398437-80.367188 34.914062-21.070312 22.855469-32.675781 54.449219-32.675781 88.964844 0 36.417968 13.535157 68.988281 43.882813 105.605468 29.332031 35.394532 72.960937 72.574219 123.476562 115.625l.09375.078126c17.660156 15.050781 37.679688 32.113281 58.515625 50.332031 20.960938-18.253907 41.011719-35.34375 58.707031-50.417969 50.511719-43.050781 94.136719-80.222656 123.46875-115.617188 30.34375-36.617187 43.878907-69.1875 43.878907-105.605468 0-34.515625-11.605469-66.109375-32.675781-88.964844-20.757813-22.515625-49.300782-34.914062-80.363282-34.914062-22.757812 0-43.652344 7.234374-62.101562 21.5-16.441406 12.71875-27.894532 28.796874-34.609375 40.046874-3.453125 5.785157-9.53125 9.238282-16.261719 9.238282s-12.808594-3.453125-16.261719-9.238282c-6.710937-11.25-18.164062-27.328124-34.609375-40.046874-18.449218-14.265626-39.34375-21.5-62.097656-21.5zm0 0"/></symbol>
  <symbol id="waitingList">
<g fill="currentColor">
	<g id="Layer_2_16_">
		<g>
			<path d="M279.591,423.714c-3.836,0.956-7.747,1.805-11.629,2.52c-10.148,1.887-16.857,11.647-14.98,21.804
				c0.927,4.997,3.765,9.159,7.618,11.876c3.971,2.795,9.025,4.057,14.175,3.099c4.623-0.858,9.282-1.867,13.854-3.008
				c10.021-2.494,16.126-12.646,13.626-22.662C299.761,427.318,289.618,421.218,279.591,423.714z"/>
			<path d="M417.887,173.047c1.31,3.948,3.811,7.171,6.97,9.398c4.684,3.299,10.813,4.409,16.662,2.475
				c9.806-3.256,15.119-13.83,11.875-23.631c-1.478-4.468-3.118-8.95-4.865-13.314c-3.836-9.59-14.714-14.259-24.309-10.423
				c-9.585,3.834-14.256,14.715-10.417,24.308C415.271,165.528,416.646,169.293,417.887,173.047z"/>
			<path d="M340.36,397.013c-3.299,2.178-6.704,4.286-10.134,6.261c-8.949,5.162-12.014,16.601-6.854,25.546
				c1.401,2.433,3.267,4.422,5.416,5.942c5.769,4.059,13.604,4.667,20.127,0.909c4.078-2.352,8.133-4.854,12.062-7.452
				c8.614-5.691,10.985-17.294,5.291-25.912C360.575,393.686,348.977,391.318,340.36,397.013z"/>
			<path d="M465.022,225.279c-0.407-10.322-9.101-18.356-19.426-17.953c-10.312,0.407-18.352,9.104-17.947,19.422
				c0.155,3.945,0.195,7.949,0.104,11.89c-0.145,6.473,3.021,12.243,7.941,15.711c2.931,2.064,6.488,3.313,10.345,3.401
				c10.322,0.229,18.876-7.958,19.105-18.285C465.247,234.756,465.208,229.985,465.022,225.279z"/>
			<path d="M414.835,347.816c-8.277-6.21-19.987-4.524-26.186,3.738c-2.374,3.164-4.874,6.289-7.434,9.298
				c-6.69,7.86-5.745,19.666,2.115,26.361c0.448,0.38,0.901,0.729,1.371,1.057c7.814,5.509,18.674,4.243,24.992-3.171
				c3.057-3.59,6.037-7.323,8.874-11.102C424.767,365.735,423.089,354.017,414.835,347.816z"/>
			<path d="M442.325,280.213c-9.855-3.09-20.35,2.396-23.438,12.251c-1.182,3.765-2.492,7.548-3.906,11.253
				c-3.105,8.156-0.13,17.13,6.69,21.939c1.251,0.879,2.629,1.624,4.126,2.19c9.649,3.682,20.454-1.159,24.132-10.812
				c1.679-4.405,3.237-8.906,4.646-13.382C457.66,293.795,452.178,283.303,442.325,280.213z"/>
			<path d="M197.999,426.402c-16.72-3.002-32.759-8.114-47.968-15.244c-0.18-0.094-0.341-0.201-0.53-0.287
				c-3.584-1.687-7.162-3.494-10.63-5.382c-0.012-0.014-0.034-0.023-0.053-0.031c-6.363-3.504-12.573-7.381-18.606-11.628
				C32.24,331.86,11.088,209.872,73.062,121.901c13.476-19.122,29.784-35.075,47.965-47.719c0.224-0.156,0.448-0.311,0.67-0.468
				c64.067-44.144,151.06-47.119,219.089-1.757l-14.611,21.111c-4.062,5.876-1.563,10.158,5.548,9.518l63.467-5.682
				c7.12-0.64,11.378-6.799,9.463-13.675L387.61,21.823c-1.908-6.884-6.793-7.708-10.859-1.833l-14.645,21.161
				C312.182,7.638,252.303-5.141,192.87,5.165c-5.986,1.036-11.888,2.304-17.709,3.78c-0.045,0.008-0.081,0.013-0.117,0.021
				c-0.225,0.055-0.453,0.128-0.672,0.189C123.122,22.316,78.407,52.207,46.5,94.855c-0.269,0.319-0.546,0.631-0.8,0.978
				c-1.061,1.429-2.114,2.891-3.145,4.353c-1.686,2.396-3.348,4.852-4.938,7.308c-0.199,0.296-0.351,0.597-0.525,0.896
				C10.762,149.191-1.938,196.361,0.24,244.383c0.005,0.158-0.004,0.317,0,0.479c0.211,4.691,0.583,9.447,1.088,14.129
				c0.027,0.302,0.094,0.588,0.145,0.89c0.522,4.708,1.177,9.427,1.998,14.145c8.344,48.138,31.052,91.455,65.079,125.16
				c0.079,0.079,0.161,0.165,0.241,0.247c0.028,0.031,0.059,0.047,0.086,0.076c9.142,9.017,19.086,17.357,29.793,24.898
				c28.02,19.744,59.221,32.795,92.729,38.808c10.167,1.827,19.879-4.941,21.703-15.103
				C214.925,437.943,208.163,428.223,197.999,426.402z"/>
			<path d="M221.124,83.198c-8.363,0-15.137,6.78-15.137,15.131v150.747l137.87,71.271c2.219,1.149,4.595,1.69,6.933,1.69
				c5.476,0,10.765-2.982,13.454-8.185c3.835-7.426,0.933-16.549-6.493-20.384l-121.507-62.818V98.329
				C236.243,89.978,229.477,83.198,221.124,83.198z"/>
		</g>
	</g>
</g>
</symbol>
<symbol id="vk"><path d="M18.4008 14.2478C19.8788 15.621 20.1839 16.2791 20.2316 16.3649C20.8418 17.3758 19.5641 17.4521 19.5641 17.4521L17.104 17.4902C17.104 17.4902 16.5701 17.5951 15.8836 17.1183C14.9587 16.4889 14.0719 14.839 13.414 15.0584C12.737 15.2777 12.756 16.7559 12.756 16.7559C12.756 16.7559 12.756 16.9657 12.6035 17.1278C12.4319 17.309 12.0981 17.2423 12.0981 17.2423H11.0016C11.0016 17.2423 8.57014 17.4902 6.44382 15.2682C4.10772 12.8459 2.04814 8.07763 2.04814 8.07763C2.04814 8.07763 1.93372 7.79153 2.05768 7.62941C2.2007 7.47683 2.60118 7.47683 2.60118 7.47683H5.23286C5.23286 7.47683 5.49031 7.47683 5.65241 7.62941C5.79543 7.73431 5.88125 7.95366 5.88125 7.95366C5.88125 7.95366 6.30079 9.01221 6.8729 9.98494C7.96943 11.8827 8.47479 12.2928 8.82759 12.0925C9.3997 11.7969 9.2376 9.41275 9.2376 9.41275C9.2376 9.41275 9.24714 8.54492 8.96108 8.16346C8.74178 7.86783 8.32223 7.77246 8.14106 7.75339C7.9885 7.73431 8.23642 7.391 8.55107 7.22888C9.02783 7 9.85738 7 10.849 7C11.6214 7 11.8407 7.05722 12.1363 7.12398C13.0516 7.34332 12.737 8.19207 12.737 10.2138C12.737 10.8718 12.6416 11.7683 13.0898 12.083C13.29 12.2165 13.7858 12.1021 15.0254 10.0135C15.5975 9.02175 16.0361 7.84875 16.0361 7.84875C16.0361 7.84875 16.1315 7.64849 16.2745 7.55312C16.4271 7.47683 16.6368 7.47683 16.6368 7.47683H19.402C19.402 7.47683 20.2411 7.38146 20.3746 7.75339C20.5176 8.14439 20.0599 9.06943 18.9253 10.5667C17.0754 13.0462 16.8657 12.8173 18.4008 14.2478Z" fill="#447DBD"></path></symbol>
<symbol id="fb"><path d="M15.9 3V6.36H14.22C13.6404 6.36 13.38 7.0404 13.38 7.62V9.72H15.9V13.08H13.38V19.8H10.02V13.08H7.5V9.72H10.02V6.36C10.02 5.46887 10.374 4.61424 11.0041 3.98412C11.6342 3.354 12.4889 3 13.38 3H15.9Z" fill="#4469B0"></path></symbol>
<symbol id="instagram">
<path d="M8.43 3.5H15.57C18.29 3.5 20.5 5.71 20.5 8.43V15.57C20.5 16.8775 19.9806 18.1315 19.056 19.056C18.1315 19.9806 16.8775 20.5 15.57 20.5H8.43C5.71 20.5 3.5 18.29 3.5 15.57V8.43C3.5 7.12248 4.01941 5.86852 4.94396 4.94396C5.86852 4.01941 7.12248 3.5 8.43 3.5ZM8.26 5.2C7.44844 5.2 6.67011 5.52239 6.09625 6.09625C5.52239 6.67011 5.2 7.44844 5.2 8.26V15.74C5.2 17.4315 6.5685 18.8 8.26 18.8H15.74C16.5516 18.8 17.3299 18.4776 17.9037 17.9037C18.4776 17.3299 18.8 16.5516 18.8 15.74V8.26C18.8 6.5685 17.4315 5.2 15.74 5.2H8.26ZM16.4625 6.475C16.7443 6.475 17.0145 6.58694 17.2138 6.7862C17.4131 6.98546 17.525 7.25571 17.525 7.5375C17.525 7.81929 17.4131 8.08954 17.2138 8.2888C17.0145 8.48806 16.7443 8.6 16.4625 8.6C16.1807 8.6 15.9105 8.48806 15.7112 8.2888C15.5119 8.08954 15.4 7.81929 15.4 7.5375C15.4 7.25571 15.5119 6.98546 15.7112 6.7862C15.9105 6.58694 16.1807 6.475 16.4625 6.475ZM12 7.75C13.1272 7.75 14.2082 8.19777 15.0052 8.9948C15.8022 9.79183 16.25 10.8728 16.25 12C16.25 13.1272 15.8022 14.2082 15.0052 15.0052C14.2082 15.8022 13.1272 16.25 12 16.25C10.8728 16.25 9.79183 15.8022 8.9948 15.0052C8.19777 14.2082 7.75 13.1272 7.75 12C7.75 10.8728 8.19777 9.79183 8.9948 8.9948C9.79183 8.19777 10.8728 7.75 12 7.75ZM12 9.45C11.3237 9.45 10.6751 9.71866 10.1969 10.1969C9.71866 10.6751 9.45 11.3237 9.45 12C9.45 12.6763 9.71866 13.3249 10.1969 13.8031C10.6751 14.2813 11.3237 14.55 12 14.55C12.6763 14.55 13.3249 14.2813 13.8031 13.8031C14.2813 13.3249 14.55 12.6763 14.55 12C14.55 11.3237 14.2813 10.6751 13.8031 10.1969C13.3249 9.71866 12.6763 9.45 12 9.45Z" fill="#E52E6B"></path>
</symbol>
<symbol id="youtube"><path fill-rule="evenodd" clip-rule="evenodd" d="M19.221 6.39153C20.0006 6.60235 20.6152 7.21976 20.8251 8.00282C21.2149 9.43341 21.1999 12.4151 21.1999 12.4151C21.1999 12.4151 21.1999 15.3816 20.8251 16.8122C20.6152 17.5953 20.0006 18.2127 19.221 18.4235C17.7968 18.8 12.1 18.8 12.1 18.8C12.1 18.8 6.41811 18.8 4.9789 18.4085C4.19934 18.1976 3.58468 17.5802 3.37479 16.7972C3 15.3816 3 12.4 3 12.4C3 12.4 3 9.43341 3.37479 8.00282C3.58468 7.21976 4.21433 6.58729 4.9789 6.37647C6.40312 6 12.1 6 12.1 6C12.1 6 17.7968 6 19.221 6.39153ZM15.0234 12.4L10.286 15.1407V9.6593L15.0234 12.4Z" fill="#FF2638"></path></symbol>
<symbol id="appliances"><path fill-rule="evenodd" clip-rule="evenodd" d="M6.19999 5.7C6.19999 5.53431 6.3343 5.4 6.49999 5.4H17.5C17.6657 5.4 17.8 5.53431 17.8 5.7V8H6.19999V5.7ZM4.79999 8V5.7C4.79999 4.76112 5.5611 4 6.49999 4H17.5C18.4389 4 19.2 4.76112 19.2 5.7V8V8.7V18.7C19.2 19.6389 18.4389 20.4 17.5 20.4H6.49999C5.5611 20.4 4.79999 19.6389 4.79999 18.7V8.7V8ZM6.19999 9.4V18.7C6.19999 18.8657 6.3343 19 6.49999 19H17.5C17.6657 19 17.8 18.8657 17.8 18.7V9.4H6.19999ZM12 16.55C13.2979 16.55 14.35 15.4979 14.35 14.2C14.35 12.9021 13.2979 11.85 12 11.85C10.7021 11.85 9.64999 12.9021 9.64999 14.2C9.64999 15.4979 10.7021 16.55 12 16.55ZM12 17.95C14.0711 17.95 15.75 16.2711 15.75 14.2C15.75 12.1289 14.0711 10.45 12 10.45C9.92892 10.45 8.24999 12.1289 8.24999 14.2C8.24999 16.2711 9.92892 17.95 12 17.95ZM13.3 6.7C13.3 6.3134 13.6134 6 14 6H16C16.3866 6 16.7 6.3134 16.7 6.7C16.7 7.0866 16.3866 7.4 16 7.4H14C13.6134 7.4 13.3 7.0866 13.3 6.7ZM7.99999 6C7.61339 6 7.29999 6.3134 7.29999 6.7C7.29999 7.0866 7.61339 7.4 7.99999 7.4H9.99999C10.3866 7.4 10.7 7.0866 10.7 6.7C10.7 6.3134 10.3866 6 9.99999 6H7.99999Z" fill="currentColor"></path></symbol>
<symbol id="electronics"><path fill-rule="evenodd" clip-rule="evenodd" d="M8.5 4.6998C7.78203 4.6998 7.2 5.28183 7.2 5.9998V17.9998C7.2 18.7178 7.78203 19.2998 8.5 19.2998H15.5C16.218 19.2998 16.8 18.7178 16.8 17.9998V5.9998C16.8 5.28183 16.218 4.6998 15.5 4.6998H8.5ZM5.8 5.9998C5.8 4.50864 7.00883 3.2998 8.5 3.2998H15.5C16.9912 3.2998 18.2 4.50864 18.2 5.9998V17.9998C18.2 19.491 16.9912 20.6998 15.5 20.6998H8.5C7.00883 20.6998 5.8 19.491 5.8 17.9998V5.9998ZM9.8 6.9998C9.8 6.61321 10.1134 6.2998 10.5 6.2998H13.5C13.8866 6.2998 14.2 6.61321 14.2 6.9998C14.2 7.3864 13.8866 7.6998 13.5 7.6998H10.5C10.1134 7.6998 9.8 7.3864 9.8 6.9998ZM12 17.9998C12.6904 17.9998 13.25 17.4402 13.25 16.7498C13.25 16.0594 12.6904 15.4998 12 15.4998C11.3096 15.4998 10.75 16.0594 10.75 16.7498C10.75 17.4402 11.3096 17.9998 12 17.9998Z" fill="currentColor"></path></symbol>
<symbol id="computers-peripherals"><path fill-rule="evenodd" clip-rule="evenodd" d="M5.4 14.6V6.4H18.6V14.6H5.4ZM4 6C4 5.44771 4.44772 5 5 5H19C19.5523 5 20 5.44772 20 6V15C20 15.5523 19.5523 16 19 16H14.2V18.3H15.5C15.8866 18.3 16.2 18.6134 16.2 19C16.2 19.3866 15.8866 19.7 15.5 19.7H8.5C8.1134 19.7 7.8 19.3866 7.8 19C7.8 18.6134 8.1134 18.3 8.5 18.3H9.8V16H5C4.44772 16 4 15.5523 4 15V6ZM11.2 18.3H12.8V16H11.2V18.3ZM10.495 8.49497C10.7683 8.22161 10.7683 7.77839 10.495 7.50503C10.2216 7.23166 9.77839 7.23166 9.50502 7.50503L6.50503 10.505C6.23166 10.7784 6.23166 11.2216 6.50503 11.495C6.77839 11.7683 7.22161 11.7683 7.49497 11.495L10.495 8.49497ZM11.495 10.005C11.7683 10.2784 11.7683 10.7216 11.495 10.995L9.99497 12.495C9.72161 12.7683 9.27839 12.7683 9.00503 12.495C8.73166 12.2216 8.73166 11.7784 9.00503 11.505L10.505 10.005C10.7784 9.73166 11.2216 9.73166 11.495 10.005Z" fill="currentColor"></path></symbol>
<symbol id="furniture"><path d="M18.3333 16.313L21 16.3333V10.9999C21 10.3095 20.357 9.66667 19.6667 9.66667C18.9763 9.66667 18.3333 10.3095 18.3333 10.9999V16.313ZM18.3333 16.313V17.6667M18.3333 16.313V15.6665C18.3333 13.8256 16.8409 12.3332 15 12.3332H9C7.15905 12.3332 5.66667 13.8256 5.66667 15.6665V16.3332M18.3333 16.313L5.66667 16.3332M5.66667 16.3332V10.9999M5.66667 16.3332H3V10.9999C3 10.3095 3.64298 9.66653 4.33333 9.66653C5.02369 9.66653 5.66667 10.3095 5.66667 10.9999M5.66667 16.3332V17.6665M5.66667 10.9999V9.66653C5.66667 7.82559 6.49238 7 8.33333 7H11C11.9205 7 12 7.74619 12 8.66667M12 8.66667V9.66653M12 8.66667C12 7.74619 12.0795 7 13 7H15C16.8409 7 18.3333 7.82559 18.3333 9.66653V12.3333" stroke="currentColor" stroke-width="1.4" stroke-linecap="round" stroke-linejoin="round"></path></symbol>
<symbol id="hobbies"><path fill-rule="evenodd" clip-rule="evenodd" d="M19.0519 0.962067C19.3488 0.714573 19.7902 0.754699 20.0377 1.05169L22.5377 4.05169C22.6581 4.19618 22.7153 4.38304 22.6964 4.57017C22.6775 4.75729 22.5841 4.92894 22.4373 5.04643L19.9373 7.04642C19.8131 7.14571 19.6589 7.19981 19.5 7.19981H18.2813L14.9717 10.3715L16.2297 11.523C16.9991 11.9699 17.1957 12.8799 16.9599 13.5873C16.9538 13.6057 16.9469 13.6239 16.9393 13.6417C16.6506 14.3153 16.0383 15.0838 15.1174 15.314C14.8537 15.3799 14.505 15.5199 14.3882 15.5782C14.3788 15.583 14.3692 15.5875 14.3595 15.5918C13.887 15.8018 13.5555 16.2921 13.502 16.7743L13.4901 16.8822C13.4172 17.5465 13.321 18.4223 12.9565 19.1514L12.9503 19.1637L12.9502 19.1637C11.9911 20.9905 10.2676 21.9256 8.42897 22.0159C6.60384 22.1055 4.67003 21.3678 3.19069 19.8884C1.71136 18.4091 0.97368 16.4753 1.06326 14.6502C1.1535 12.8115 2.08864 11.088 3.91545 10.129L3.92772 10.1225L3.92778 10.1227C4.65687 9.7581 5.53269 9.66198 6.19696 9.58907L6.30488 9.57717C6.78365 9.52398 7.27044 9.19676 7.48285 8.72961C7.67992 8.24416 8.04801 7.69643 8.42511 7.31933C9.99534 5.7491 12.4287 5.50416 14.3719 6.58344L15.8 5.20294V3.99982C15.8 3.79208 15.8923 3.59506 16.0519 3.46207L19.0519 0.962067ZM13.3021 7.61758C11.9484 7.05082 10.4102 7.31412 9.41506 8.30928C9.16141 8.56293 8.89857 8.9598 8.77692 9.26392C8.77366 9.27209 8.77023 9.2802 8.76666 9.28824C8.34216 10.2434 7.4049 10.8636 6.45949 10.9686C5.71006 11.0519 5.05874 11.1244 4.55986 11.3719C3.21847 12.0789 2.52984 13.3278 2.46157 14.7188C2.39253 16.1255 2.96346 17.6813 4.18064 18.8985C5.39782 20.1157 6.95363 20.6866 8.36035 20.6176C9.75136 20.5493 11.0003 19.8607 11.7073 18.5192C11.9547 18.0204 12.0273 17.3691 12.1105 16.6196C12.2151 15.6789 12.8297 14.7462 13.7769 14.3188C13.9838 14.2174 14.4159 14.0463 14.7778 13.9558C15.1176 13.8709 15.4493 13.5429 15.639 13.1209C15.6636 13.0313 15.659 12.9421 15.6347 12.8722C15.6105 12.8025 15.5688 12.754 15.5069 12.7231C15.4489 12.6941 15.3952 12.6572 15.3473 12.6133L13.9588 11.3422L12.4844 12.7552C12.3501 12.8839 12.1701 12.9539 11.9841 12.9496C11.7981 12.9454 11.6215 12.8673 11.4932 12.7327L10.303 11.4833C10.0377 11.2048 10.0467 10.7645 10.3233 10.4972L13.3021 7.61758ZM15.9837 6.97253C16.0661 7.06247 16.1717 7.13081 16.291 7.16808L12.0226 11.2587L11.7959 11.0207L15.9837 6.97253ZM17.2 5.79981V5.50742V5.49208V4.32768L19.4104 2.48571L21.005 4.39933L19.2544 5.79981H17.2ZM3.93545 15.6951C4.20881 15.4217 4.65203 15.4217 4.92539 15.6951L7.30468 18.0744C7.57804 18.3477 7.57804 18.791 7.30468 19.0643C7.03131 19.3377 6.58809 19.3377 6.31473 19.0643L3.93545 16.685C3.66208 16.4117 3.66208 15.9685 3.93545 15.6951ZM9.6 14.4998C9.6 15.1073 9.10751 15.5998 8.5 15.5998C7.89249 15.5998 7.4 15.1073 7.4 14.4998C7.4 13.8923 7.89249 13.3998 8.5 13.3998C9.10751 13.3998 9.6 13.8923 9.6 14.4998ZM11 14.4998C11 15.8805 9.88071 16.9998 8.5 16.9998C7.11929 16.9998 6 15.8805 6 14.4998C6 13.1191 7.11929 11.9998 8.5 11.9998C9.88071 11.9998 11 13.1191 11 14.4998Z" fill="currentColor"></path></symbol>
<symbol id="availableAmount">
<path fill-rule="evenodd" clip-rule="evenodd" d="M13 9C13 11.7614 10.7614 14 8 14C5.23858 14 3 11.7614 3 9C3 6.23858 5.23858 4 8 4C10.7614 4 13 6.23858 13 9ZM14 9C14 12.3137 11.3137 15 8 15C4.68629 15 2 12.3137 2 9C2 5.68629 4.68629 3 8 3C11.3137 3 14 5.68629 14 9ZM5.92426 8.07574L7.5 9.65147L10.5757 6.57574L11.4243 7.42426L7.92426 10.9243C7.81174 11.0368 7.65913 11.1 7.5 11.1C7.34087 11.1 7.18826 11.0368 7.07574 10.9243L5.07574 8.92426L5.92426 8.07574Z" fill="currentColor"/>
</symbol>
<symbol id="star">
<path d="M7.14131 0.726793C7.28803 0.429495 7.71197 0.429496 7.85869 0.726794L9.61113 4.27761C9.66939 4.39567 9.78202 4.47749 9.9123 4.49643L13.8309 5.06583C14.1589 5.1135 14.29 5.51669 14.0525 5.7481L11.217 8.51203C11.1228 8.60392 11.0798 8.73632 11.102 8.86608L11.7714 12.7688C11.8274 13.0956 11.4845 13.3447 11.191 13.1905L7.68614 11.3479C7.56961 11.2866 7.43039 11.2866 7.31386 11.3479L3.809 13.1905C3.51555 13.3447 3.17258 13.0956 3.22862 12.7688L3.89799 8.86608C3.92024 8.73632 3.87722 8.60392 3.78295 8.51203L0.947457 5.7481C0.71005 5.51669 0.841053 5.1135 1.16914 5.06583L5.0877 4.49643C5.21798 4.47749 5.33061 4.39567 5.38887 4.27761L7.14131 0.726793Z" fill="#e52e6b"/>
</symbol>

</svg>
